<?xml version="1.0" encoding="utf-8"?>
<!-- Generator: Adobe Illustrator 25.3.1, SVG Export Plug-In . SVG Version: 6.00 Build 0)  -->
<svg version="1.1" xmlns="http://www.w3.org/2000/svg" xmlns:xlink="http://www.w3.org/1999/xlink" x="0px" y="0px"
	 viewBox="0 0 19.611 19.615" style="enable-background:new 0 0 19.611 19.615;" xml:space="preserve">
<style type="text/css">
	.st0{fill:#1D1D1B;}
</style>
<g id="Layer_1">
</g>
<g id="Footer">
	<path class="st0" d="M19.611,13.853c-0.142,2.894-2.204,5.224-5.098,5.699c-0.234,0.039-0.474,0.056-0.713,0.062
		c-0.157-0.01-0.217-0.066-0.216-0.266c0.001-0.441,0.003-0.883,0.004-1.324c0.004-1.901,0.003-3.801-0.004-5.701
		c-0.001-0.227,0.078-0.269,0.28-0.266c0.675,0.01,1.35-0.005,2.024,0.009c0.203,0.005,0.272-0.07,0.294-0.253
		c0.094-0.791,0.204-1.579,0.289-2.37c0.047-0.439,0.03-0.441-0.42-0.441c-0.737,0-1.473-0.007-2.21,0.005
		c-0.21,0.003-0.262-0.065-0.257-0.266c0.013-0.574,0.002-1.148,0.006-1.721c0.003-0.746,0.345-1.219,1.148-1.249
		c0.549-0.021,1.099-0.036,1.648-0.032c0.21,0.002,0.267-0.073,0.266-0.268c-0.007-0.729-0.01-1.458,0.001-2.187
		c0.003-0.223-0.09-0.307-0.296-0.316c-0.255-0.011-0.51-0.03-0.766-0.042c-0.95-0.046-1.903-0.123-2.825,0.213
		c-1.18,0.43-1.889,1.275-2.185,2.483c-0.23,0.939-0.124,1.896-0.143,2.845c-0.01,0.534-0.002,0.535-0.542,0.535
		C9.308,9.003,8.719,9.009,8.129,9c-0.19-0.003-0.256,0.058-0.253,0.253c0.009,0.853,0.011,1.706-0.002,2.559
		c-0.003,0.217,0.076,0.255,0.269,0.253c0.682-0.01,1.365,0.002,2.047-0.008c0.195-0.003,0.25,0.061,0.25,0.252
		c-0.005,1.906-0.006,3.811-0.002,5.717c0,0.444,0.002,0.888,0.003,1.332c0.001,0.212-0.072,0.258-0.269,0.258
		c-1.482-0.003-2.964-0.005-4.445-0.006c-2.889-0.164-5.181-2.198-5.668-5.089c-0.031-0.185-0.048-0.375-0.057-0.564
		C0.002,12.571,0,11.185,0,9.799c0-1.382,0.003-2.763,0.004-4.145c0.176-2.834,2.264-5.153,5.105-5.597
		C5.32,0.024,5.534,0.007,5.749,0c2.701,0.003,5.401,0.003,8.102,0c2.892,0.14,5.237,2.217,5.701,5.104
		c0.035,0.216,0.052,0.436,0.059,0.657C19.609,8.458,19.609,11.155,19.611,13.853z"/>
	<g>
	</g>
	<g>
	</g>
	<g>
	</g>
	<g>
	</g>
	<g>
	</g>
	<g>
	</g>
	<g>
	</g>
	<g>
	</g>
	<g>
	</g>
	<g>
	</g>
	<g>
	</g>
</g>
</svg>
