<svg xmlns="http://www.w3.org/2000/svg" width="103.303" height="115.516" viewBox="0 0 103.303 115.516">
  <g id="Group_169" data-name="Group 169" transform="translate(-1583.208 -1667.773)">
    <path id="Path_151" data-name="Path 151" d="M3532.234,1633.315c-1.823,1.009-5.941,20.624-19.476,36.728s-41.429,22.334-40.222,23.62,11.058,5.351,11.058,5.351,25.062-9.739,34.809-23.364,13.5-23.671,14.2-36.072-.367-5.186-.367-5.186S3534.057,1632.306,3532.234,1633.315Z" transform="translate(-1848.173 82.48)" fill="#d23937"/>
    <g id="Group_102" data-name="Group 102" transform="translate(1584.709 1669.304)">
      <g id="Group_43" data-name="Group 43" transform="translate(0 0)">
        <path id="Path_53" data-name="Path 53" d="M50.142,112.025C14.944,97.4,9.377,83.783,4.062,68.237S.174,12.571.174,12.571C18.622-1.358,49.838.04,49.838.04h.609s31.216-1.4,49.664,12.531c0,0,1.425,40.119-3.889,55.666S85.34,97.4,50.142,112.025" transform="translate(0 -0.001)" fill="none" stroke="#4d5c5c" stroke-linecap="round" stroke-width="3" fill-rule="evenodd"/>
        <path id="Path_54" data-name="Path 54" d="M12.181,59.541l50.386.169a6.162,6.162,0,0,0,6.212-3.924l.229-.527a4.181,4.181,0,0,0,.328-.838c.581-2.037-.447-2.951-3.012-2.96l-50.471-.17Z" transform="translate(5.254 4.773)" fill="none" stroke="#4d5c5c" stroke-linecap="round" stroke-width="3" fill-rule="evenodd"/>
        <path id="Path_55" data-name="Path 55" d="M21.011,39.859l49.631.167c2.889.009,4.956-1.122,6.1-3.769l.232-.527a6.893,6.893,0,0,0,.375-1.066c.569-1.964-.53-2.879-3.037-2.888l-49.63-.167Z" transform="translate(5.351 4.557)" fill="none" stroke="#4d5c5c" stroke-linecap="round" stroke-width="3" fill-rule="evenodd"/>
      </g>
    </g>
  </g>
</svg>
