<svg xmlns="http://www.w3.org/2000/svg" width="124.632" height="131.195" viewBox="0 0 124.632 131.195">
  <g id="Group_99" data-name="Group 99" transform="translate(-382.155 -1570.969)">
    <path id="Path_148" data-name="Path 148" d="M2596.36,1604.918s5.947.081,7.222,5.15,4.2,12.886,3.778,17-9.061,8.726-6.6,10.473,13.424-2.8,13.535-4.96-3.686-19.524-3.686-19.524-2.4-9.892-5.644-10.142S2596.36,1604.918,2596.36,1604.918Z" transform="translate(-2109.043 -9.477)" fill="#d23937"/>
    <g id="Group_95" data-name="Group 95" transform="translate(389.955 1572.469)">
      <rect id="Rectangle_25" data-name="Rectangle 25" width="10.813" height="5.777" transform="translate(91.595 17.755) rotate(-13.568)" fill="none" stroke="#4d5c5c" stroke-linecap="round" stroke-linejoin="round" stroke-width="3"/>
      <line id="Line_4" data-name="Line 4" x1="23.684" y2="35.673" transform="translate(11.361 64.577)" fill="none" stroke="#4d5c5c" stroke-linecap="round" stroke-linejoin="round" stroke-width="3"/>
      <g id="Group_38" data-name="Group 38" transform="translate(0 0)">
        <g id="Group_44" data-name="Group 44">
          <path id="Path_56" data-name="Path 56" d="M14.609,159.885a1.571,1.571,0,0,1-1.577-1.493,1.578,1.578,0,1,1,3.153-.167,1.575,1.575,0,0,1-1.493,1.658Zm-.295-5.233a1.586,1.586,0,0,1-1.556-1.493A1.586,1.586,0,0,1,14.25,151.5a1.608,1.608,0,0,1,1.661,1.494,1.569,1.569,0,0,1-1.511,1.636A.279.279,0,0,1,14.314,154.652ZM14.1,149.4h-.063a1.578,1.578,0,0,1-.083-3.153h.02a1.577,1.577,0,0,1,1.641,1.494,1.583,1.583,0,0,1-1.493,1.661S14.126,149.4,14.1,149.4Zm-.336-5.254a1.575,1.575,0,0,1-1.578-1.493,1.62,1.62,0,0,1,1.514-1.663,1.6,1.6,0,0,1,1.639,1.494,1.574,1.574,0,0,1-1.492,1.661Z" transform="translate(-4.949 -39.095)" fill="#d23937"/>
          <path id="Path_57" data-name="Path 57" d="M141.3,63.154l3.252-.784A5.276,5.276,0,0,0,148.441,56l-5.252-21.775a5.275,5.275,0,0,0-6.367-3.89L126.5,32.83a5.272,5.272,0,0,0-3.892,6.365l5.252,21.773a5.269,5.269,0,0,0,6.362,3.891l3.478-.84" transform="translate(-33.273 -8.991)" fill="none" stroke="#4d5c5c" stroke-linecap="round" stroke-linejoin="round" stroke-width="3"/>
          <path id="Path_58" data-name="Path 58" d="M83.558,74.323l3.5,16.044L68.276,108a7.783,7.783,0,0,0-1.834,5.558l-.13,27.551v1.576a6.66,6.66,0,0,0,2.355,4.722,6.909,6.909,0,0,0,5.159,1.752q5.423-.534,6.477-5.606l.45-28.688,15.578-12.782L99.675,116.2a8.771,8.771,0,0,0,1.4,2.989l16.853,26.456a6.616,6.616,0,0,0,6.649,3.5,7.511,7.511,0,0,0,4.9-2.536,6.371,6.371,0,0,0,1.576-5.164,4.966,4.966,0,0,0-.878-2.974l-15.8-24.721-1.257-5.294" transform="translate(-18.017 -20.982)" fill="none" stroke="#4d5c5c" stroke-linecap="round" stroke-linejoin="round" stroke-width="3"/>
          <path id="Path_59" data-name="Path 59" d="M108.675,97.6l-6.2-26.046-.929-3.925L95.515,42.28s-2.832-9.253-10.934-7.74a11.912,11.912,0,0,0-8.206,6.6l-7.335,20.13L52.7,67.092a4.846,4.846,0,0,0-2.714,4.51c.157,2.906,3.117,4.856,6.284,3.985L75.06,68.5a4.413,4.413,0,0,0,1.846-1.622l.392-.808,3.947-8.509a.314.314,0,0,1,.026-.069.064.064,0,0,0,.02-.028l2.039-4.408" transform="translate(-13.578 -10.127)" fill="none" stroke="#4d5c5c" stroke-linecap="round" stroke-linejoin="round" stroke-width="3"/>
          <path id="Path_60" data-name="Path 60" d="M5.711,157.078a1.468,1.468,0,0,1-.881-.273,1.545,1.545,0,0,1-.418-2.186A1.6,1.6,0,0,1,6.6,154.2a1.577,1.577,0,0,1-.886,2.881Zm2.964-4.332a1.549,1.549,0,0,1-.9-.295,1.593,1.593,0,0,1-.651-.987,1.527,1.527,0,0,1,.252-1.2,1.6,1.6,0,0,1,2.186-.4,1.5,1.5,0,0,1,.65.986,1.611,1.611,0,0,1-.23,1.2A1.632,1.632,0,0,1,8.675,152.746ZM11.64,148.4a1.468,1.468,0,0,1-.881-.273,1.547,1.547,0,0,1-.422-2.186,1.624,1.624,0,0,1,2.186-.422,1.5,1.5,0,0,1,.65,1.008,1.542,1.542,0,0,1-.228,1.178A1.589,1.589,0,0,1,11.64,148.4Z" transform="translate(-6.835 -38.095)" fill="#d23937"/>
          <path id="Path_61" data-name="Path 61" d="M1.571,147.764a1.581,1.581,0,0,1-.4-3.109A1.619,1.619,0,0,1,3.1,145.77,1.579,1.579,0,0,1,1.989,147.7,1.475,1.475,0,0,1,1.571,147.764Zm5.086-1.386a1.6,1.6,0,0,1-1.535-1.156,1.578,1.578,0,1,1,3.049-.818,1.6,1.6,0,0,1-1.115,1.933A2.74,2.74,0,0,1,6.657,146.378Zm5.066-1.366A1.588,1.588,0,0,1,11.3,141.9a1.6,1.6,0,0,1,1.932,1.115,1.582,1.582,0,0,1-1.093,1.936A1.559,1.559,0,0,1,11.723,145.012Z" transform="translate(-7.8 -38.893)" fill="#d23937"/>
          <path id="Path_62" data-name="Path 62" d="M86.693,24.369,88.46,11.244C88.162,5.6,82.755,1.082,76.067,1.082c-6.645,0-12.021,4.463-12.372,10.068H50.486v3.358l4.791,2.681.247,1.782c1.324,9.518,8.471,16.695,19.1,16.695M72.218,35.5C64.956,34.787,55.3,28.44,57.181,18.971H72.218Z" transform="translate(-13.717 -1.082)" fill="none" stroke="#4d5c5c" stroke-linecap="round" stroke-linejoin="round" stroke-width="3"/>
          <path id="Path_63" data-name="Path 63" d="M131.755,110.551c4.125-.413,9.766-1.76,13.551-5.815,3.389-3.633,4.607-8.662,3.619-14.945v0c-.875-5.551-4.676-11.142-6.933-14.06" transform="translate(-35.798 -21.365)" fill="none" stroke="#4d5c5c" stroke-linecap="round" stroke-linejoin="round" stroke-width="3"/>
        </g>
      </g>
    </g>
  </g>
</svg>
