<svg xmlns="http://www.w3.org/2000/svg" width="95.377" height="135.164" viewBox="0 0 95.377 135.164">
  <g id="Group_101" data-name="Group 101" transform="translate(-880.623 -1562.808)">
    <path id="Path_149" data-name="Path 149" d="M3038.061,1698s10.45,24.683,5.759,23.787-10.586,12.4-10.8,19.329,8.763-13.376,8.763-13.376l15.546,5.159-13.51-39.892Z" transform="translate(-2094.813 -44.684)" fill="#d23937"/>
    <g id="Group_94" data-name="Group 94" transform="translate(882.123 1564.266)">
      <g id="Group_42" data-name="Group 42" transform="translate(0 0)">
        <path id="Path_64" data-name="Path 64" d="M60.063,90.561A21.914,21.914,0,0,1,54,89.33a21.257,21.257,0,0,0-5.812-1.2,21.366,21.366,0,0,0-5.811,1.2c-2.9.874-6.032,1.661-8.466.874-2.808-.913-4.7-3.416-6.522-5.84a20.028,20.028,0,0,0-3.813-4.222,20.332,20.332,0,0,0-5.255-2.364c-2.846-.988-5.792-2.008-7.5-4.361C9.125,71.092,9.06,67.99,8.994,64.991a21,21,0,0,0-.639-5.782,19.713,19.713,0,0,0-2.789-4.842C3.813,51.865,2,49.279,2,46.265s1.813-5.6,3.566-8.1A19.641,19.641,0,0,0,8.357,33.32,21.064,21.064,0,0,0,9,27.534c.063-3,.129-6.1,1.821-8.424,1.712-2.353,4.656-3.372,7.5-4.36a20.386,20.386,0,0,0,5.255-2.365,20.151,20.151,0,0,0,3.813-4.221c1.827-2.423,3.714-4.928,6.522-5.841,2.433-.787,5.57,0,8.466.875a21.293,21.293,0,0,0,5.812,1.195A21.363,21.363,0,0,0,54,3.2c2.9-.872,6.032-1.66,8.467-.875,2.807.914,4.7,3.416,6.521,5.841A20.023,20.023,0,0,0,72.8,12.385a20.333,20.333,0,0,0,5.255,2.365c2.846.988,5.792,2.008,7.5,4.361,1.692,2.324,1.758,5.427,1.823,8.427a21.015,21.015,0,0,0,.639,5.783,19.72,19.72,0,0,0,2.791,4.843c1.753,2.5,3.566,5.088,3.566,8.1s-1.812,5.6-3.566,8.1a19.687,19.687,0,0,0-2.791,4.843A21.074,21.074,0,0,0,87.379,65c-.063,3-.129,6.1-1.821,8.425-1.711,2.353-4.656,3.372-7.5,4.36A20.436,20.436,0,0,0,72.8,80.144a20.16,20.16,0,0,0-3.813,4.222c-1.827,2.423-3.714,4.928-6.521,5.84A7.853,7.853,0,0,1,60.063,90.561Z" transform="translate(-2 -1.999)" fill="none" stroke="#4d5c5c" stroke-linecap="round" stroke-linejoin="round" stroke-width="3"/>
        <path id="Path_65" data-name="Path 65" d="M26.087,50.924,39.673,63.618a1.915,1.915,0,0,0,1.442.5l.2-.039a1.912,1.912,0,0,0,1.137-.707L69.44,28.215" transform="translate(-1.471 -1.424)" fill="none" stroke="#4d5c5c" stroke-linecap="round" stroke-linejoin="round" stroke-width="3"/>
        <path id="Path_66" data-name="Path 66" d="M44.641,98.461l-7.293,20a.841.841,0,0,1-.727.551.379.379,0,0,0-.067,0,.847.847,0,0,1-.739-.434l-7.14-12.9-14.451,5.052a.85.85,0,0,1-.879-.2.838.838,0,0,1-.192-.88L23.7,80.717" transform="translate(-1.756 -0.271)" fill="none" stroke="#4d5c5c" stroke-linecap="round" stroke-linejoin="round" stroke-width="3"/>
        <path id="Path_67" data-name="Path 67" d="M67.4,85.4,81.107,123a.843.843,0,0,1-1.072,1.083l-14.449-5.048-7.14,12.9a.838.838,0,0,1-.739.439c-.022,0-.043,0-.066,0a.848.848,0,0,1-.728-.551L41.242,88.832" transform="translate(-1.138 -0.168)" fill="none" stroke="#4d5c5c" stroke-linecap="round" stroke-linejoin="round" stroke-width="3"/>
      </g>
    </g>
  </g>
</svg>
