<?xml version="1.0" encoding="utf-8"?>
<!-- Generator: Adobe Illustrator 25.3.1, SVG Export Plug-In . SVG Version: 6.00 Build 0)  -->
<svg version="1.1" id="Layer_1" xmlns="http://www.w3.org/2000/svg" xmlns:xlink="http://www.w3.org/1999/xlink" x="0px" y="0px"
	 viewBox="0 0 166.2 147.96" style="enable-background:new 0 0 166.2 147.96;" xml:space="preserve">
<style type="text/css">
	.st0{fill:#D23937;}
	.st1{fill:#FFFFFF;}
</style>
<g id="Group_13" transform="translate(-874 -311.759)">
	<g id="Group_12" transform="translate(0 0)">
		<g transform="matrix(1, 0, 0, 1, 0, -8)">
			<path id="Path_32-2" class="st0" d="M1035.375,394.542c0-36.883-29.9-66.783-66.783-66.783s-66.783,29.9-66.783,66.783
				s29.9,66.783,66.783,66.783l0,0C1005.475,461.325,1035.375,431.425,1035.375,394.542"/>
		</g>
		<path id="Path_33" class="st1" d="M1023.678,383.728h-3.854c-1.346-21.706-18.605-39.034-40.305-40.467v-3.849
			c-0.03-1.596-1.348-2.866-2.944-2.837c-1.555,0.029-2.808,1.282-2.837,2.837v3.854c-14.811,0.939-28.097,9.432-35.168,22.48
			c-13.809,2.089-23.124,12.849-25.694,30.03c-5.458-0.964-12.684-4.016-15.575-11.882c-6.744-17.825-20.075-16.7-20.715-16.541
			c-1.547,0.144-2.691,1.503-2.57,3.052c0.092,1.518,1.398,2.674,2.916,2.582c0.045-0.003,0.091-0.007,0.136-0.012
			c0.482,0,9.794-0.643,14.773,12.846c3.854,10.437,13.327,14.453,21.2,15.736c1.132,3.747,4.599,6.298,8.513,6.263h17.016
			c7.283,12.799,20.479,21.115,35.168,22.161v3.692c-0.03,1.596,1.24,2.915,2.837,2.944c1.596,0.03,2.915-1.24,2.944-2.837
			c0.001-0.036,0.001-0.072,0-0.108v-3.692c21.709-1.475,38.992-18.758,40.467-40.467h3.854c1.589,0.007,2.883-1.275,2.89-2.864
			c0-0.009,0-0.017,0-0.026c-0.125-1.603-1.444-2.851-3.052-2.887V383.728z M919.138,401.076c-0.667-0.805-0.958-1.857-0.8-2.891
			c1.125-10.117,5.943-27.14,25.051-27.14c4.27,0.058,8.502,0.818,12.525,2.25v1.284c0.069,1.551,1.383,2.752,2.934,2.683
			c1.515-0.068,2.704-1.325,2.685-2.842c-0.043-1.177,0.233-2.343,0.8-3.375c1.445-2.567,4.177-3.854,6.1-2.887
			c0.932,0.562,1.576,1.499,1.767,2.57c0.486,2.58-0.661,5.195-2.89,6.583c-1.33,0.885-1.691,2.68-0.806,4.01
			c0.537,0.808,1.443,1.292,2.413,1.29c0.571-0.01,1.128-0.177,1.61-0.483c0.4-0.228,0.776-0.496,1.122-0.8
			c6.424,4.5,11.562,10.117,14.132,16.059c0.465,1.107,0.345,2.373-0.32,3.372c-0.617,1.003-1.713,1.612-2.891,1.607h-60.862
			c-0.966-0.16-1.86-0.607-2.567-1.284L919.138,401.076z M979.518,424.2v-3.534c-0.03-1.596-1.348-2.866-2.944-2.837
			c-1.555,0.029-2.808,1.282-2.837,2.837v3.534c-11.405-0.8-21.816-6.775-28.261-16.218h37.092c3.098-0.045,5.977-1.605,7.708-4.174
			c1.698-2.635,1.997-5.935,0.8-8.833c-2.89-6.744-8.833-13.169-15.9-18.307c0.974-2.221,1.253-4.685,0.8-7.068
			c-0.557-2.71-2.253-5.05-4.656-6.421c-4.656-2.412-10.6-0.32-13.651,4.656c-3.966-1.249-8.057-2.057-12.2-2.409
			c6.431-9.487,16.841-15.518,28.269-16.379v3.531c0,1.596,1.293,2.889,2.888,2.89c1.596,0,2.889-1.293,2.89-2.888
			c0,0,0-0.001,0-0.001v-3.531c18.505,1.485,33.198,16.177,34.684,34.681h-3.531c-1.596,0-2.889,1.293-2.89,2.888
			s1.293,2.889,2.888,2.89c0,0,0.001,0,0.001,0h3.531c-1.481,18.507-16.176,33.204-34.683,34.686L979.518,424.2z"/>
		<path id="Path_34" class="st1" d="M968.6,386.623c-2.217,0.001-4.013,1.799-4.012,4.016c0.001,2.217,1.799,4.013,4.016,4.012
			c2.215-0.001,4.011-1.797,4.012-4.012c0.022-2.196-1.741-3.994-3.938-4.016C968.652,386.623,968.626,386.623,968.6,386.623"/>
	</g>
</g>
</svg>
