<svg xmlns="http://www.w3.org/2000/svg" xmlns:xlink="http://www.w3.org/1999/xlink" width="380" height="163.566" viewBox="0 0 380 163.566">
  <defs>
    <filter id="Path_32" x="12.814" y="0" width="163.566" height="163.566" filterUnits="userSpaceOnUse">
      <feOffset dy="7" input="SourceAlpha"/>
      <feGaussianBlur stdDeviation="5" result="blur"/>
      <feFlood flood-opacity="0.22"/>
      <feComposite operator="in" in2="blur"/>
      <feComposite in="SourceGraphic"/>
    </filter>
  </defs>
  <g id="Group_47" data-name="Group 47" transform="translate(874 319.759)">
    <path id="Rectangle_18" data-name="Rectangle 18" d="M10.227,0H311.773A10.227,10.227,0,0,1,322,10.227v0A79.773,79.773,0,0,1,242.227,90h-232A10.227,10.227,0,0,1,0,79.773V10.227A10.227,10.227,0,0,1,10.227,0Z" transform="translate(-816 -289.074)" fill="#d23937"/>
    <g id="Group_13" data-name="Group 13" transform="translate(-874 -311.759)">
      <g id="Group_12" data-name="Group 12" transform="translate(0 0)">
        <g transform="matrix(1, 0, 0, 1, 0, -8)" filter="url(#Path_32)">
          <path id="Path_32-2" data-name="Path 32" d="M142.515,66.783a66.783,66.783,0,1,0-66.783,66.783,66.783,66.783,0,0,0,66.783-66.783" transform="translate(18.86 8)" fill="#d23937"/>
        </g>
        <path id="Path_33" data-name="Path 33" d="M149.678,52.6h-3.854a43.236,43.236,0,0,0-40.305-40.467V8.284a2.891,2.891,0,0,0-5.781,0v3.854A43.1,43.1,0,0,0,64.57,34.618c-13.809,2.089-23.124,12.849-25.694,30.03-5.458-.964-12.684-4.016-15.575-11.882C16.557,34.941,3.226,36.066,2.586,36.225a2.842,2.842,0,0,0-2.57,3.052,2.754,2.754,0,0,0,3.052,2.57c.482,0,9.794-.643,14.773,12.846,3.854,10.437,13.327,14.453,21.2,15.736a8.811,8.811,0,0,0,8.513,6.263H64.57A44.065,44.065,0,0,0,99.738,98.853v3.692a2.891,2.891,0,1,0,5.781,0V98.853a43.518,43.518,0,0,0,40.467-40.467h3.854a2.877,2.877,0,0,0,2.89-2.89,3.131,3.131,0,0,0-3.052-2.887ZM45.138,69.948a3.662,3.662,0,0,1-.8-2.891c1.125-10.117,5.943-27.14,25.051-27.14a38.952,38.952,0,0,1,12.525,2.25v1.284a2.811,2.811,0,0,0,5.619-.159,6.52,6.52,0,0,1,.8-3.375c1.445-2.567,4.177-3.854,6.1-2.887A3.777,3.777,0,0,1,96.2,39.6a6.367,6.367,0,0,1-2.89,6.583,2.892,2.892,0,0,0,1.607,5.3A3.107,3.107,0,0,0,96.527,51a6.73,6.73,0,0,0,1.122-.8c6.424,4.5,11.562,10.117,14.132,16.059a3.581,3.581,0,0,1-.32,3.372,3.376,3.376,0,0,1-2.891,1.607l-60.862,0a4.856,4.856,0,0,1-2.567-1.284Zm60.38,23.124V89.538a2.891,2.891,0,0,0-5.781,0v3.534A37.385,37.385,0,0,1,71.476,76.854h37.092a9.461,9.461,0,0,0,7.708-4.174,9.564,9.564,0,0,0,.8-8.833c-2.89-6.744-8.833-13.169-15.9-18.307a12.008,12.008,0,0,0,.8-7.068,9.623,9.623,0,0,0-4.656-6.421c-4.656-2.412-10.6-.32-13.651,4.656a56.567,56.567,0,0,0-12.2-2.409A37.559,37.559,0,0,1,99.738,17.919v3.531a2.889,2.889,0,1,0,5.778,0V17.919A37.831,37.831,0,0,1,140.2,52.6h-3.531a2.889,2.889,0,1,0,0,5.778H140.2a37.823,37.823,0,0,1-34.683,34.686Z" transform="translate(0 11.369)" fill="#fff"/>
        <path id="Path_34" data-name="Path 34" d="M33.161,21.513a4.014,4.014,0,1,0,4.016,4.016,3.977,3.977,0,0,0-4.016-4.016" transform="translate(61.439 45.351)" fill="#fff"/>
      </g>
    </g>
    <text id="SCHEDULE_FREE_INSPECTION" data-name="SCHEDULE  FREE INSPECTION" transform="translate(-694.478 -270.084)" fill="#fff" font-size="20" font-family="Poppins-ExtraBoldItalic, Poppins" font-weight="800" font-style="italic"><tspan x="0" y="21" xml:space="preserve">SCHEDULE  FREE </tspan><tspan x="0" y="42">INSPECTION</tspan></text>
  </g>
</svg>
